<?xml version="1.0" encoding="utf-8"?>
<!-- Generator: Adobe Illustrator 26.0.1, SVG Export Plug-In . SVG Version: 6.00 Build 0)  -->
<svg version="1.1" id="Layer_1" xmlns="http://www.w3.org/2000/svg" xmlns:xlink="http://www.w3.org/1999/xlink" x="0px" y="0px"
	 viewBox="0 0 800 600" style="enable-background:new 0 0 800 600;" xml:space="preserve">
<style type="text/css">
	.st0{fill:#FFFFFF;}
</style>
<g>
	<g>
		<path class="st0" d="M172,563c0-166.7,0-333.3,0-500c166.7,0,333.3,0,500,0c0,166.7,0,333.3,0,500C505.3,563,338.7,563,172,563z
			 M536.9,483.8c-43.4-10.9-187.3-10.8-226.3,0.1c2.3,9.3,4.8,18.6,6.7,28.1c0.9,4.6,3,5.2,7.2,4.8c26.5-2.4,53-5.1,79.6-6.4
			c34.8-1.6,69.5,0.5,104.2,4.4c6.7,0.8,13.4,1.5,20.4,2.3C531.5,505.6,534.2,494.7,536.9,483.8z M628.1,461.7
			c0.4,0.3,0.8,0.5,1.1,0.8c-0.3,3.2-0.9,6.5-0.8,9.7c0.3,9.5,6.7,13.7,14.8,8.8c7-4.2,13.1-10.1,19.4-15.4c0.6-0.5,0.2-2.1,0.4-3.6
			c-6.2,5-11.5,9.5-17.2,13.6c-1.6,1.1-4.7,1.5-6.3,0.7c-1.3-0.6-2.1-3.9-1.8-5.6c2.4-11,5.3-21.8,7.8-32.2c5.5-1.1,9.9,3.6,14,0.9
			c0-0.5,0-1.1,0.1-1.6c-3.9-1.2-7.8-2.4-12-3.7c2.8-8,5.4-15.5,8-23c-6-2.9-6-2.9-8.4,2.8c-2.6,6.1-5.1,12.2-7.4,17.4
			c-3,0.3-5,0.6-7,0.8c0,0.5,0.1,1.1,0.1,1.6c1.6,0.7,3.1,1.5,4.9,2.3c-1.6,4.5-3.1,8.7-4.5,12.9c-3.3,9.7-11.3,15.3-18.7,21.4
			c-0.7,0.6-2.8,0.6-3.5,0c-0.8-0.6-1.2-2.4-1-3.5c0.4-2.4,1.3-4.8,2.1-7.2c2.4-7.1,5.2-14.1,7.1-21.3c2.3-8.5-3.4-14.1-12-12.4
			c-2.9,0.6-5.7,1.8-8.3,3.2c-2.9,1.6-5.4,3.7-8.2,5.7c-0.2-0.6-0.4-1-0.3-1.2c0.6-2.6,1.5-5.1,1.8-7.8c0.1-1.3-0.3-3.5-1.3-4.1
			c-3.5-2-7.3,0.1-8.1,4.2c-0.7,3.4-1.4,6.8-1.9,10.3c-1.5,10.5-9.2,16.5-16.2,23.1c-2.5,2.3-4.3,0.6-4.7-2.3
			c-0.2-1.3-0.1-2.7,0.2-4c2.5-10,5.1-20,7.6-29.9c0.4-1.7,0.9-3.4,1.4-5.1c-7-1.2-8.1-0.6-11.4,6.4c-0.7-1.1-1.3-2.1-1.9-3
			c-4.4-7-10.7-9.2-18.5-6.2c-7.6,2.9-12.3,8.7-14.5,16.1c-2.2,7.6-7.2,13.1-12.4,18.4c-1.6,1.6-4.5,1.9-6.9,2.7
			c-0.5-2.4-1.9-5.1-1.3-7.2c3-9.5,6.4-18.8,9.9-28.2c2.3-6.2,1.5-7.4-5.2-6.9c-4.3,0.3-8.5,1-13,1.5c-0.9-4.2-2-8.1-6.8-7.4
			c-2.1,0.3-5,1.9-5.6,3.7c-2.1,6.1,3.3,8,8.4,11.4c-6,9.6-11.8,19-17.9,28.3c-0.9,1.4-3.1,2.1-4.7,3.1c-0.7-1.9-2.1-3.8-2-5.7
			c0.2-5.6,0.9-11.3,1.5-16.9c0.7-6.9,1.6-13.7,2.4-20.5c-7-1.1-8.3-0.4-9.2,5.4c-0.7,4.4-1.1,8.9-1.6,13.4
			c-0.8,7.8-2.9,15.1-8.6,20.8c-3.8,3.8-7.9,2.7-9.6-2.3c-0.6-1.9-1.1-3.9-1-5.9c0.4-6.3,1-12.6,1.6-18.9c0.5-4.5,1.2-9,1.8-13.5
			c-8.3-0.9-9.6-0.3-10.1,6.8c-0.9,12.2-4.7,23-12.3,32.5c-1,1.3-2.9,2-4.3,3c-0.9-1.7-2.5-3.3-2.5-5c-0.2-6.3-0.1-12.7,0.4-19
			c0.5-6.2,1.6-12.4,2.5-19.6c-3.1,1-5.9,1.1-7.5,2.6c-1.6,1.4-2,4.1-3,6.3c-9.2-10.6-20.2-10.5-27.8,0.6c-2.5,3.7-4.6,8.4-5.1,12.8
			c-0.9,8-5.1,14-9.5,19.9c-1.4,1.9-4.3,3.6-6.4,3.5c-1.4-0.1-3.4-3.6-3.7-5.7c-1.1-8.9-1.5-17.9-2.4-26.8c-0.5-4.7,0.7-7.2,6-6.8
			c2.1,0.2,4.4-0.9,6.5-1.4c-0.1-0.6-0.3-1.3-0.4-1.9c-3.9,0-7.7,0-12.2,0c0-8.5,0-16.6,0-24.6c-5.1-0.8-7.3,0.5-7.3,5.6
			c0,6.6-0.7,13.2-1.1,18.8c-2.7,1.4-4.5,2.4-6.2,3.3c0.2,0.5,0.5,0.9,0.7,1.4c1.6,0.1,3.2,0.3,5.6,0.5c0,6.9-0.4,13.7,0.1,20.4
			c0.5,6.1,1.3,12.3,3.2,18.1c2.5,7.6,9.5,8.9,15.5,3.5c1.8-1.7,3.4-3.6,4.9-5.7c2.1-2.9,3.9-6,5.9-9.2
			c10.3,20.5,17.3,21.1,33.1,2.9c0.8,2.6,1.3,5.2,2.4,7.7c2.2,5.2,6.6,6.3,10.7,2.4c2.4-2.3,4.2-5.1,6.1-7.8
			c1.7-2.5,3.2-5.1,5.5-8.8c0.9,8.1,0.4,15.9,8.6,18.4c8.9,2.7,12.9-4.6,18-10.7c0.5,2.5,0.7,4.2,1.1,6c1.2,5.2,6.4,7.8,11.2,5.2
			c2-1.1,3.9-2.8,5.1-4.7c5.3-8.3,10.9-16.4,15.2-25.2c2.4-4.9,4.7-8.5,10.4-9.6c3.3-0.6,6.4-2.6,9.6-3.9c0.3,0.4,0.5,0.8,0.8,1.2
			c-1.4,2.4-2.8,4.8-4.3,7.2c-3.2,5.4-7.3,10.5-9.5,16.4c-1.9,5-2.4,10.9-2.4,16.4c0,3.7,3.5,6.4,7,5.4c4.1-1.1,8-3.5,11.4-6.1
			c2.9-2.2,5-5.5,8-9c0.9,9,3.3,16.2,12,18.7c9,2.6,13.7-4.6,19.8-10.1c0.2,2.7-0.1,4.7,0.6,6.5c0.9,2.5,2,6,3.9,6.8
			c2.2,0.8,5.7-0.4,8.1-1.7c2.4-1.3,4.2-3.8,6.1-5.8c2.1-2.2,4.1-4.6,6.1-6.9c0.4,2.4,0,4.3-0.6,6.1c-0.9,2.7-1.9,5.3-2.8,8
			c-1.1,3.2,0.6,4.3,3.5,4.3c3.3,0,5.7-1,6.4-4.8c0.9-5.4,2.3-10.7,3.2-16.1c1.9-10.5,9.8-15.4,18.5-19.1c4.2-1.8,7.4,1.2,6.3,5.7
			c-0.8,3.4-2.1,6.6-3.2,10c-2.3,6.9-4.9,13.8-6.6,20.9c-0.6,2.5,0.1,6.6,1.8,7.9c2,1.6,6.2,2,8.7,1c3.9-1.6,7.2-4.7,10.5-7.5
			C624.9,465.8,626.4,463.6,628.1,461.7z M228.7,436.4c4.6-3.5,10.2-7.4,15.3-11.9c8-7,14.7-15,17.4-25.6c3-11.9-2.3-22.3-13.4-25.3
			c-4.2-1.1-9-1.6-13.3-1.2c-38.9,4.4-63.4,38.9-54.4,77c1.8,7.8,5.7,15.2,9.1,22.5c1.2,2.6,3.5,4.9,5.7,6.9
			c5,4.6,10.8,6.5,17.4,3.8c6.3-2.6,8.4-8.3,8.1-14.2c-0.4-7.8-2.2-15.4-3.1-23.2c-0.2-1.3,0.3-3.6,1.2-4c1.3-0.7,3.8-0.8,4.8,0.1
			c2.7,2.1,5.2,4.7,7.2,7.5c5,6.6,9.5,13.7,14.7,20.2c11.9,14.9,27.5,18,45.3,13.7c0.9-0.2,1.6-1.1,3-2.2c-5.3-0.3-9.6-0.2-13.8-0.9
			c-10.9-1.9-18.7-8.9-26-16.7C245.7,454.1,237.3,445.4,228.7,436.4z M272.2,233.5c0,82.6,67.5,150.2,150,150.2
			c82.7,0,150.2-67.3,150.3-149.8c0.1-82.7-67.3-150.4-149.7-150.4C339.8,83.4,272.2,150.7,272.2,233.5z M307,425.2
			c6.8,4,13.2,7.2,18.9,11.5c6.9,5.2,7.2,14.9,1.3,20c-3.8,3.3-8.5,3.8-12.6,1.8c-2.5-1.3-4.9-4.7-5.4-7.5
			c-0.7-4.6,2.3-8.1,6.6-10.1c0.8-0.4,1.5-0.9,2.7-1.6c-6.2-1.1-11.3,1.7-13.2,6.8c-1.9,5,0.2,10.7,5,13.8
			c7.8,4.9,19.8,1.7,24.8-6.8c4.4-7.5,5.8-20.4-5.3-25.4c-5.1-2.3-10.4-4.4-15.8-6.1c-3.7-1.2-5.7-2.5-4.6-7
			c0.4-1.8-1.3-5.6-2.6-5.9c-2.1-0.5-5.2,0.6-7,2.1c-2.9,2.6-2,7.1,1.2,10.7c1.1,1.2,2.7,3.3,2.4,4.2c-3.8,9.9-7.8,19.7-12.3,29.3
			c-1.1,2.4-4.2,4.2-6.9,5.4c-5.3,2.3-11-0.8-14.9-6.8c-3.5-5.4,1.5-6.8,3.9-9.4c4.1-4.3,8.7-8.3,12-13.2c1.6-2.4,1.8-7.2,0.4-9.6
			c-1.2-2.1-5.7-3.4-8.5-3c-3.7,0.6-7.7,2.5-10.5,5c-9.1,8-11,24.3-4.8,35.5c6.3,11.4,19.8,13.2,28.2,3.2c4.1-4.9,7.2-10.8,9.9-16.6
			C302.6,439.2,304.4,432.6,307,425.2z M279.3,536.6c25.4-3.8,50-7.4,74.6-11.1c-11.9-1.4-23.9-2.5-35.8-3.3c-2.6-0.2-3.8-1-4.4-3.6
			c-1.4-6-3.3-11.9-4.6-17.9c-0.7-3.3-2.1-4.1-5.2-3.5c-4.9,1-9.8,1.7-14.7,2.6c-6.9,1.2-13.8,2.5-22,4c7.6,5,14.1,9.3,20.7,13.7
			C285,524.1,282.2,530.1,279.3,536.6z M494,525.2c0,0.1,0,0.3,0,0.4c24.5,3.6,49,7.3,74.2,11c-2.5-5.4-4.6-10.5-7.2-15.3
			c-1.6-2.9-0.8-4.4,1.8-6c5.5-3.4,10.8-7.1,17.5-11.5c-14.5-2.5-27.5-4.8-40.8-7.1c-2,7.6-3.8,14.4-5.4,21.2
			c-0.7,3-1.9,4.3-5.3,4.5C517.2,523,505.6,524.2,494,525.2z M264.5,526c-0.8,0.5-1.5,0.7-1.8,1.1c-4.1,6.9-10.4,7.3-17,5
			c-5-1.7-9.7-4.3-14.4-6.7c-13.5-6.8-27.4-8.6-41.1-1.1c-3.6,1.9-6.4,6.1-8.4,9.8c-1.5,2.9,0.1,6.8,3.6,7.6
			c2.3,0.5,5.2-0.8,7.5-1.9c0.6-0.3,0.8-3.4,0-4.3c-0.7-1-3.1-1.5-4.3-1c-0.8,0.3-0.9,2.6-1.1,4.1c-0.1,0.5,0.2,1,0.4,1.8
			c-4.6-2.2-5.9-6.1-2.3-9.1c3.9-3.3,8.8-6,13.8-7.2c12.1-3,23.3,0.8,34.1,6.2c3.8,1.9,7.7,4,11.9,5.1
			C253.8,537.7,261.9,533.6,264.5,526z M660.6,539.7c-1-2.1-1.8-3.9-2.6-5.6c-1.6,0.9-3.1,1.8-4.7,2.7c1.4,1.8,2.4,4.5,4.3,5.2
			c4.7,1.9,9.7-3,7.8-7.9c-1.3-3.5-4.1-7.1-7.2-9c-12.3-7.6-25.3-6.9-38.3-1.5c-4.9,2-9.4,5.1-14.2,7.2c-10,4.4-14.3,3.4-22-4.3
			c-0.2-0.2-0.6-0.1-0.9-0.1c1.8,5.4,6.9,9.8,12.9,9.3c5.4-0.5,10.8-2.6,16.1-4.3c8-2.6,15.8-6.2,24-7.9c8.7-1.7,17.3,0.2,24.4,6.1
			C664.6,533.3,664.4,537.7,660.6,539.7z M234.1,534.5c-0.1-0.4-0.2-0.8-0.3-1.3c-3.5,0.7-7,1.3-10.3,2.4c-0.5,0.2-0.9,3-0.3,3.9
			c0.7,1.2,2.5,1.7,4.4,2.8C226.9,535.6,227.5,535,234.1,534.5z M619.5,541.7c3.4,0.1,5.3-1.3,4.9-4.4c-0.4-3.6-4.3-4.5-11.4-2.6
			C619.6,534.9,620.3,535.6,619.5,541.7z M235.8,514.6c-1.5-1.4-4.1-1.8-5.6,1.1c-2,4,1.1,5.9,3.1,7.4
			C234.1,520.3,234.9,517.8,235.8,514.6z M613.7,523.2c2.1-1.6,5.7-3.5,3.2-7.7c-1.5-2.5-4-2.4-5.3-1
			C612.5,518,613.1,520.6,613.7,523.2z"/>
		<path d="M536.9,483.8c-2.7,10.9-5.5,21.8-8.3,33.3c-6.9-0.8-13.7-1.5-20.4-2.3c-34.6-4-69.4-6-104.2-4.4
			c-26.6,1.2-53.1,4-79.6,6.4c-4.2,0.4-6.3-0.2-7.2-4.8c-1.9-9.4-4.4-18.7-6.7-28.1C349.6,473,493.6,472.9,536.9,483.8z
			 M434.9,488.1c-6.8,1.3-9-3.2-11.5-8.8c-1.8,6.4-5,9.4-11.2,9.3c5.4,3.4,5.5,8,4,14.5c5.3-4.8,9.7-4.3,14.7-1.2
			C428.1,496.1,431,492.3,434.9,488.1z M367,492.4c5.4,2.9,6.5,7.2,5.6,13.1c4.3-5.2,8.8-3.9,13.8-1.7c-2.6-5.5-0.8-9.6,3-13.8
			c-6.6,1.6-9.3-2.5-12.3-7.9C376.1,488.6,372.8,491.6,367,492.4z M470.9,504.9c-2.4-6.2,1.2-9.4,6.5-13.4
			c-7.7,0.4-10.1-3.5-11.9-9.8c-2.2,6.5-5.8,9.1-11.8,8.5c4.1,3.9,5.3,8.2,3.2,13.6C462,500.8,466.3,501.4,470.9,504.9z
			 M505.4,492.9c-1.6,2.3-3.3,3.7-3.1,4.9c0.1,1.3,2,2.3,3.2,3.5c1.2-1.2,3.1-2.3,3.4-3.8C509.1,496.5,507.1,495,505.4,492.9z
			 M341.9,492.8c-1.8,2.2-3.6,3.4-3.6,4.6c0,1.3,1.8,2.5,2.9,3.7c1.3-1.1,3.3-2,3.7-3.4C345.2,496.8,343.4,495.2,341.9,492.8z"/>
		<path d="M628.1,461.7c-1.7,1.9-3.2,4.1-5.2,5.8c-3.3,2.8-6.6,5.9-10.5,7.5c-2.4,1-6.6,0.5-8.7-1c-1.7-1.3-2.4-5.4-1.8-7.9
			c1.7-7.1,4.4-13.9,6.6-20.9c1.1-3.3,2.4-6.6,3.2-10c1-4.5-2.1-7.5-6.3-5.7c-8.7,3.7-16.6,8.6-18.5,19.1c-1,5.4-2.3,10.7-3.2,16.1
			c-0.6,3.8-3.1,4.9-6.4,4.8c-2.8,0-4.6-1.1-3.5-4.3c0.9-2.7,1.9-5.3,2.8-8c0.6-1.8,1-3.7,0.6-6.1c-2,2.3-4,4.7-6.1,6.9
			c-1.9,2.1-3.7,4.5-6.1,5.8c-2.4,1.3-5.9,2.5-8.1,1.7c-1.9-0.7-3-4.3-3.9-6.8c-0.6-1.7-0.4-3.8-0.6-6.5
			c-6.1,5.5-10.9,12.7-19.8,10.1c-8.6-2.5-11.1-9.7-12-18.7c-3,3.4-5.1,6.7-8,9c-3.4,2.6-7.3,5-11.4,6.1c-3.5,1-7-1.7-7-5.4
			c0-5.5,0.5-11.3,2.4-16.4c2.2-5.8,6.3-10.9,9.5-16.4c1.4-2.4,2.8-4.8,4.3-7.2c-0.3-0.4-0.5-0.8-0.8-1.2c-3.2,1.3-6.3,3.3-9.6,3.9
			c-5.8,1.1-8,4.7-10.4,9.6c-4.4,8.8-9.9,16.9-15.2,25.2c-1.2,1.9-3.1,3.6-5.1,4.7c-4.7,2.6-9.9,0-11.2-5.2c-0.4-1.7-0.7-3.5-1.1-6
			c-5.1,6.1-9,13.5-18,10.7c-8.2-2.5-7.6-10.3-8.6-18.4c-2.3,3.7-3.7,6.3-5.5,8.8c-1.9,2.7-3.7,5.6-6.1,7.8
			c-4.1,3.9-8.5,2.8-10.7-2.4c-1-2.4-1.6-5-2.4-7.7c-15.8,18.1-22.8,17.6-33.1-2.9c-2.1,3.2-3.9,6.3-5.9,9.2c-1.4,2-3,4-4.9,5.7
			c-5.9,5.4-12.9,4.1-15.5-3.5c-1.9-5.7-2.7-12-3.2-18.1c-0.5-6.7-0.1-13.6-0.1-20.4c-2.3-0.2-3.9-0.3-5.6-0.5
			c-0.2-0.5-0.5-0.9-0.7-1.4c1.8-0.9,3.5-1.9,6.2-3.3c0.4-5.6,1.1-12.2,1.1-18.8c0-5.1,2.2-6.4,7.3-5.6c0,8,0,16,0,24.6
			c4.4,0,8.3,0,12.2,0c0.1,0.6,0.3,1.3,0.4,1.9c-2.2,0.5-4.4,1.5-6.5,1.4c-5.3-0.4-6.5,2.1-6,6.8c0.9,8.9,1.3,17.9,2.4,26.8
			c0.3,2.1,2.3,5.6,3.7,5.7c2.1,0.2,5.1-1.6,6.4-3.5c4.4-6,8.6-12,9.5-19.9c0.5-4.4,2.6-9.1,5.1-12.8c7.6-11.1,18.6-11.2,27.8-0.6
			c1-2.2,1.4-4.9,3-6.3c1.7-1.4,4.4-1.6,7.5-2.6c-1,7.2-2,13.4-2.5,19.6c-0.5,6.3-0.6,12.6-0.4,19c0,1.7,1.6,3.4,2.5,5
			c1.5-1,3.3-1.7,4.3-3c7.6-9.5,11.4-20.4,12.3-32.5c0.5-7.1,1.8-7.7,10.1-6.8c-0.6,4.5-1.3,9-1.8,13.5c-0.6,6.3-1.2,12.6-1.6,18.9
			c-0.1,1.9,0.3,4,1,5.9c1.7,5,5.8,6.1,9.6,2.3c5.7-5.7,7.8-13,8.6-20.8c0.5-4.5,0.9-9,1.6-13.4c0.9-5.7,2.2-6.5,9.2-5.4
			c-0.8,6.8-1.7,13.7-2.4,20.5c-0.6,5.6-1.3,11.3-1.5,16.9c-0.1,1.9,1.3,3.8,2,5.7c1.6-1,3.8-1.6,4.7-3.1
			c6.1-9.3,11.8-18.7,17.9-28.3c-5.1-3.3-10.5-5.3-8.4-11.4c0.6-1.7,3.5-3.4,5.6-3.7c4.8-0.7,5.8,3.3,6.8,7.4
			c4.5-0.5,8.7-1.2,13-1.5c6.7-0.5,7.5,0.7,5.2,6.9c-3.4,9.3-6.9,18.7-9.9,28.2c-0.6,2.1,0.8,4.8,1.3,7.2c2.3-0.9,5.3-1.1,6.9-2.7
			c5.2-5.3,10.2-10.8,12.4-18.4c2.2-7.5,6.9-13.3,14.5-16.1c7.8-3,14.1-0.8,18.5,6.2c0.6,0.9,1.2,1.9,1.9,3c3.3-7,4.4-7.6,11.4-6.4
			c-0.5,1.7-1,3.4-1.4,5.1c-2.6,10-5.1,19.9-7.6,29.9c-0.3,1.3-0.4,2.7-0.2,4c0.4,2.9,2.2,4.6,4.7,2.3c7-6.5,14.7-12.6,16.2-23.1
			c0.5-3.5,1.2-6.9,1.9-10.3c0.8-4.1,4.6-6.2,8.1-4.2c0.9,0.5,1.4,2.7,1.3,4.1c-0.3,2.6-1.2,5.2-1.8,7.8c-0.1,0.3,0.2,0.6,0.3,1.2
			c2.8-2,5.3-4.1,8.2-5.7c2.6-1.4,5.4-2.6,8.3-3.2c8.6-1.7,14.3,3.9,12,12.4c-1.9,7.2-4.8,14.2-7.1,21.3c-0.8,2.4-1.7,4.7-2.1,7.2
			c-0.2,1.1,0.2,2.9,1,3.5c0.7,0.6,2.8,0.6,3.5,0c7.4-6.1,15.4-11.7,18.7-21.4c1.4-4.2,3-8.4,4.5-12.9c-1.8-0.8-3.3-1.6-4.9-2.3
			c0-0.5-0.1-1.1-0.1-1.6c2-0.2,4-0.5,7-0.8c2.2-5.3,4.8-11.3,7.4-17.4c2.4-5.7,2.4-5.7,8.4-2.8c-2.6,7.5-5.2,15-8,23
			c4.2,1.3,8.1,2.5,12,3.7c0,0.5,0,1.1-0.1,1.6c-4.2,2.7-8.5-2-14-0.9c-2.6,10.3-5.4,21.2-7.8,32.2c-0.4,1.8,0.5,5,1.8,5.6
			c1.6,0.8,4.7,0.4,6.3-0.7c5.7-4,10.9-8.6,17.2-13.6c-0.1,1.5,0.2,3.1-0.4,3.6c-6.4,5.3-12.4,11.2-19.4,15.4
			c-8.1,4.9-14.5,0.7-14.8-8.8c-0.1-3.2,0.5-6.5,0.8-9.7C628.9,462.2,628.5,462,628.1,461.7z M556.4,432.6
			c-0.1-7.7-3.8-13.5-8.7-14.7c-5.2-1.3-10.6,1.9-13.9,8.3c-3.5,6.9-4.8,14.4-2.6,21.8c0.9,3.2,4,7.1,6.9,8.1
			c2.6,0.9,7.2-1.1,9.5-3.2C553.6,447.2,555.9,439.7,556.4,432.6z M407.8,427.5c-0.4-0.2-0.8-0.4-1.2-0.6c-0.1-2-0.1-4-0.5-6
			c-1.1-5.9-5.8-10.8-10.5-11.3c-5.1-0.5-9.9,2.9-12.1,9.3c-2.9,8.4-2.6,16.8,1.4,24.7c3.6,7.1,11.3,8,15.5,1.4
			C403.8,439.8,405.4,433.4,407.8,427.5z"/>
		<path d="M228.7,436.4c8.6,9,17,17.7,25.3,26.5c7.3,7.7,15.1,14.8,26,16.7c4.2,0.7,8.5,0.6,13.8,0.9c-1.5,1.1-2.2,2-3,2.2
			C273,487,257.3,484,245.4,469c-5.2-6.5-9.7-13.5-14.7-20.2c-2.1-2.8-4.5-5.4-7.2-7.5c-1.1-0.8-3.5-0.7-4.8-0.1
			c-0.9,0.4-1.4,2.7-1.2,4c1,7.7,2.7,15.4,3.1,23.2c0.3,6-1.8,11.6-8.1,14.2c-6.6,2.8-12.4,0.9-17.4-3.8c-2.2-2-4.5-4.3-5.7-6.9
			c-3.4-7.4-7.2-14.7-9.1-22.5c-9-38.1,15.4-72.6,54.4-77c4.3-0.5,9,0,13.3,1.2c11,2.9,16.3,13.3,13.4,25.3
			c-2.7,10.7-9.4,18.6-17.4,25.6C238.9,429,233.3,432.8,228.7,436.4z M251.1,401.8c0-18-9-27.1-22.5-24.7
			c-18.6,3.2-32,13.4-38.9,31.3c-5.5,14.2-5.2,28.8-1.1,43.2c2.4,8.7,6.3,17,10.3,25.2c1.8,3.6,5.8,5.7,10.2,3.9
			c4.6-1.9,5.1-6,4.4-10.1c-1.4-7.8-3.2-15.6-5.2-23.3c-0.3-1.3-2.1-2.6-3.5-3.2c-2.7-1.1-5.1-3.3-2.7-5.4c4-3.5,2-6.8,1.1-10.2
			c-1.3-4.8-2.7-9.6-4.3-14.3c-1-2.9-1.9-5.6,2.3-6.5c3.5-0.7,7-1.4,8.2,3.7c1.3,5.8,2.9,11.6,4.3,17.4c1.5,6.3,7.3,8.8,13,5.2
			c4.5-2.8,8.9-5.9,12.8-9.5C246.5,417.5,250.9,409.1,251.1,401.8z"/>
		<path d="M272.2,233.5c0-82.8,67.6-150.1,150.6-150.1c82.4,0,149.8,67.7,149.7,150.4c-0.1,82.5-67.6,149.9-150.3,149.8
			C339.7,383.7,272.2,316.1,272.2,233.5z M570.4,233.5c1.1-75-59.7-148-148-148.1c-83.9-0.1-147.9,67.4-148.3,147.5
			c-0.4,81.9,66.4,149,147.9,149C503.9,382,570.4,315.4,570.4,233.5z"/>
		<path d="M307,425.2c-2.6,7.4-4.4,14-7.2,20.1c-2.7,5.8-5.8,11.7-9.9,16.6c-8.4,10-21.8,8.3-28.2-3.2c-6.3-11.3-4.4-27.5,4.8-35.5
			c2.8-2.5,6.8-4.4,10.5-5c2.7-0.4,7.3,0.9,8.5,3c1.4,2.4,1.2,7.2-0.4,9.6c-3.3,4.9-7.9,8.9-12,13.2c-2.5,2.6-7.4,4-3.9,9.4
			c3.9,6,9.6,9.2,14.9,6.8c2.6-1.2,5.7-3,6.9-5.4c4.5-9.6,8.5-19.4,12.3-29.3c0.4-1-1.3-3-2.4-4.2c-3.2-3.6-4.1-8.1-1.2-10.7
			c1.7-1.5,4.9-2.6,7-2.1c1.3,0.3,3.1,4.1,2.6,5.9c-1.1,4.5,0.9,5.8,4.6,7c5.4,1.7,10.7,3.7,15.8,6.1c11.1,5.1,9.7,18,5.3,25.4
			c-5,8.5-17,11.8-24.8,6.8c-4.9-3.1-6.9-8.8-5-13.8c1.9-5.1,7-7.9,13.2-6.8c-1.2,0.7-1.9,1.2-2.7,1.6c-4.3,2.1-7.3,5.5-6.6,10.1
			c0.4,2.8,2.9,6.3,5.4,7.5c4.1,2,8.8,1.5,12.6-1.8c5.9-5.1,5.6-14.9-1.3-20C320.2,432.4,313.8,429.3,307,425.2z M266.2,444.7
			c0.7,0.4,1.3,0.7,2,1.1c3.4-4.5,7.1-8.9,10.1-13.7c1.9-3.1,2-7.1-1.9-9.1c-3.9-2-6.7,0.7-8.5,3.9
			C264.6,432.7,265.4,438.7,266.2,444.7z"/>
		<path d="M279.3,536.6c3-6.5,5.7-12.5,8.7-19c-6.6-4.4-13.1-8.6-20.7-13.7c8.1-1.5,15-2.8,22-4c4.9-0.9,9.8-1.6,14.7-2.6
			c3-0.6,4.5,0.2,5.2,3.5c1.3,6,3.2,11.9,4.6,17.9c0.6,2.6,1.8,3.4,4.4,3.6c11.9,0.8,23.9,1.9,35.8,3.3
			C329.3,529.2,304.7,532.8,279.3,536.6z"/>
		<path d="M494,525.2c11.6-1,23.2-2.2,34.8-2.9c3.4-0.2,4.6-1.5,5.3-4.5c1.6-6.8,3.4-13.5,5.4-21.2c13.3,2.3,26.4,4.6,40.8,7.1
			c-6.7,4.4-12,8.1-17.5,11.5c-2.6,1.6-3.4,3-1.8,6c2.6,4.8,4.7,9.9,7.2,15.3c-25.1-3.7-49.6-7.4-74.2-11
			C494,525.5,494,525.3,494,525.2z"/>
		<path d="M264.5,526c-2.7,7.6-10.7,11.7-19.2,9.4c-4.1-1.1-8-3.2-11.9-5.1c-10.8-5.4-22-9.2-34.1-6.2c-4.9,1.2-9.8,4-13.8,7.2
			c-3.6,3-2.3,6.9,2.3,9.1c-0.2-0.8-0.5-1.3-0.4-1.8c0.3-1.4,0.3-3.8,1.1-4.1c1.2-0.5,3.5,0,4.3,1c0.7,0.9,0.6,4,0,4.3
			c-2.3,1.1-5.2,2.5-7.5,1.9c-3.5-0.8-5.1-4.7-3.6-7.6c2-3.8,4.8-7.9,8.4-9.8c13.7-7.5,27.5-5.7,41.1,1.1c4.7,2.4,9.4,5,14.4,6.7
			c6.6,2.3,12.9,1.9,17-5C263,526.7,263.7,526.5,264.5,526z"/>
		<path d="M660.6,539.7c3.8-2,4.1-6.4-0.4-10.2c-7.1-5.9-15.7-7.8-24.4-6.1c-8.2,1.6-15.9,5.3-24,7.9c-5.3,1.7-10.6,3.9-16.1,4.3
			c-6,0.5-11.1-3.9-12.9-9.3c0.3,0,0.7-0.1,0.9,0.1c7.7,7.7,12,8.6,22,4.3c4.9-2.1,9.3-5.2,14.2-7.2c12.9-5.4,26-6.1,38.3,1.5
			c3.1,1.9,5.8,5.6,7.2,9c1.9,5-3.1,9.9-7.8,7.9c-1.8-0.8-2.9-3.4-4.3-5.2c1.6-0.9,3.1-1.8,4.7-2.7
			C658.7,535.8,659.6,537.5,660.6,539.7z"/>
		<path d="M234.1,534.5c-6.6,0.5-7.2,1.1-6.5,7.8c-1.9-1.1-3.7-1.6-4.4-2.8c-0.6-0.9-0.2-3.8,0.3-3.9c3.4-1.1,6.9-1.6,10.3-2.4
			C233.9,533.7,234,534.1,234.1,534.5z"/>
		<path d="M619.5,541.7c0.8-6,0-6.8-6.5-7c7.1-1.8,11.1-1,11.4,2.6C624.8,540.4,623,541.7,619.5,541.7z"/>
		<path d="M235.8,514.6c-0.9,3.2-1.7,5.7-2.5,8.6c-2-1.5-5.1-3.5-3.1-7.4C231.7,512.7,234.3,513.2,235.8,514.6z"/>
		<path d="M613.7,523.2c-0.6-2.6-1.3-5.2-2.1-8.7c1.3-1.4,3.8-1.5,5.3,1C619.4,519.7,615.8,521.5,613.7,523.2z"/>
		<path class="st0" d="M434.9,488.1c-3.9,4.2-6.7,8-4,13.8c-5-3.1-9.4-3.7-14.7,1.2c1.5-6.5,1.4-11.1-4-14.5
			c6.2,0.1,9.4-2.9,11.2-9.3C425.9,484.9,428.1,489.5,434.9,488.1z"/>
		<path class="st0" d="M367,492.4c5.8-0.7,9.1-3.8,10.2-10.4c3,5.4,5.6,9.6,12.3,7.9c-3.8,4.2-5.6,8.4-3,13.8
			c-5-2.2-9.5-3.5-13.8,1.7C373.5,499.6,372.4,495.3,367,492.4z"/>
		<path class="st0" d="M470.9,504.9c-4.6-3.6-9-4.1-14.1-1.1c2.1-5.4,1-9.7-3.2-13.6c6,0.6,9.6-1.9,11.8-8.5
			c1.8,6.3,4.3,10.2,11.9,9.8C472.1,495.5,468.5,498.7,470.9,504.9z"/>
		<path class="st0" d="M505.4,492.9c1.7,2.2,3.7,3.6,3.5,4.6c-0.3,1.4-2.2,2.5-3.4,3.8c-1.1-1.2-3-2.2-3.2-3.5
			C502.1,496.6,503.8,495.1,505.4,492.9z"/>
		<path class="st0" d="M341.9,492.8c1.5,2.3,3.3,4,3,5c-0.4,1.4-2.4,2.3-3.7,3.4c-1-1.2-2.8-2.5-2.9-3.7
			C338.3,496.2,340.1,495,341.9,492.8z"/>
		<path class="st0" d="M556.4,432.6c-0.5,7.1-2.8,14.6-8.8,20.2c-2.3,2.2-6.9,4.1-9.5,3.2c-2.9-1-6-4.8-6.9-8.1
			c-2.2-7.4-0.9-14.9,2.6-21.8c3.3-6.4,8.7-9.6,13.9-8.3C552.7,419,556.3,424.9,556.4,432.6z"/>
		<path class="st0" d="M407.8,427.5c-2.4,5.9-4,12.2-7.4,17.5c-4.2,6.7-11.9,5.7-15.5-1.4c-4-7.9-4.3-16.3-1.4-24.7
			c2.2-6.4,7-9.8,12.1-9.3c4.7,0.5,9.4,5.4,10.5,11.3c0.4,1.9,0.3,4,0.5,6C407,427.2,407.4,427.3,407.8,427.5z"/>
		<path class="st0" d="M251.1,401.8c-0.1,7.3-4.6,15.7-11.9,22.5c-3.9,3.6-8.3,6.7-12.8,9.5c-5.7,3.6-11.4,1-13-5.2
			c-1.4-5.8-3-11.6-4.3-17.4c-1.1-5.1-4.7-4.4-8.2-3.7c-4.2,0.9-3.2,3.6-2.3,6.5c1.6,4.7,3,9.5,4.3,14.3c0.9,3.4,3,6.7-1.1,10.2
			c-2.4,2.1,0,4.3,2.7,5.4c1.4,0.6,3.2,1.9,3.5,3.2c2,7.7,3.8,15.5,5.2,23.3c0.7,4,0.2,8.2-4.4,10.1c-4.5,1.8-8.5-0.3-10.2-3.9
			c-4-8.1-7.8-16.5-10.3-25.2c-4-14.3-4.4-29,1.1-43.2c6.9-17.9,20.3-28.1,38.9-31.3C242.1,374.7,251.1,383.8,251.1,401.8z"/>
		<path class="st0" d="M570.4,233.5c0,81.9-66.5,148.4-148.3,148.4c-81.5-0.1-148.3-67.1-147.9-149c0.4-80.1,64.4-147.6,148.3-147.5
			C510.7,85.5,571.5,158.5,570.4,233.5z M422.1,355.8c66.5,0.3,122.1-54.5,122.4-120.8c0.4-67.4-53.9-123.3-120.1-123.5
			c-68.7-0.3-123.8,53.5-124.2,121.5C299.7,300.1,354.7,355.5,422.1,355.8z"/>
		<path class="st0" d="M266.2,444.7c-0.8-6-1.6-12.1,1.6-17.7c1.8-3.2,4.6-5.9,8.5-3.9c3.9,2,3.8,6,1.9,9.1
			c-2.9,4.8-6.7,9.2-10.1,13.7C267.5,445.5,266.9,445.1,266.2,444.7z"/>
		<path d="M422.1,355.8c-67.4-0.3-122.4-55.7-121.9-122.9c0.5-67.9,55.5-121.7,124.2-121.5c66.2,0.2,120.5,56.1,120.1,123.5
			C544.2,301.3,488.6,356.1,422.1,355.8z M303.8,233.6c0,64.6,52.9,117.8,116.3,118.7c64.6,0.9,120.9-51.1,121-118.7
			c0.1-65.4-53.3-118.9-118.7-118.9C356.8,114.8,303.8,167.9,303.8,233.6z"/>
		<path class="st0" d="M303.8,233.6c0-65.7,53-118.8,118.6-118.8c65.5,0,118.9,53.5,118.7,118.9c-0.1,67.5-56.5,119.6-121,118.7
			C356.7,351.5,303.8,298.3,303.8,233.6z M425,229.1c-0.4-0.7-0.7-1.6-1.3-2.1c-20.3-20.7-40.5-41.3-60.9-61.9c-1-1-3.5-1.7-4.3-1.2
			c-1.2,0.9-2.4,3.1-2.2,4.6c0.4,3.4,1,7.2,2.8,9.9c5.7,8.8,11.3,17.7,18.1,25.6c11.2,13.1,24.2,24.1,39.9,30.5
			c2.9-2,5.4-3.8,7.9-5.5c-4.1,4.5-7.9,9.3-12.5,13.3c-17.4,15.5-35,30.8-52.6,46.1c-5.3,4.6-7.9,10-6.5,17.2
			c6.9,1.2,12.3-0.8,16.7-5.9c8.8-10.2,17.6-20.5,26.4-30.6c8.6-9.9,17.4-19.6,26.4-29.7c2.2,2.1,4.2,3.6,5.8,5.4
			c16.1,17.3,32,34.8,48.3,51.9c3,3.2,7.4,5.5,11.7,6.9c4.9,1.6,7.2-0.7,5.6-5.8c-1.2-3.9-3.3-8.2-6.2-10.9
			c-13.4-12.7-27.3-24.9-41-37.3c-6-5.4-11.7-11.1-17.6-16.8c9.5-10.6,18.1-21.2,33.6-20.9c1.4,0,3.3-1,4.3-2.1
			c9.3-10.4,18.4-20.9,27.5-31.4c-0.2-0.2-0.4-0.4-0.6-0.6c-9.3,8.4-18.7,16.8-28,25.2c-0.3-0.3-0.7-0.7-1-1
			c8.5-9.5,16.9-19.1,25.4-28.6c-0.2-0.1-0.3-0.3-0.5-0.4c-9.5,8.5-19.1,17-28.6,25.5c-0.3-0.3-0.6-0.7-0.9-1
			c8.3-9.4,16.7-18.7,25-28.1c-0.2-0.2-0.4-0.3-0.5-0.5c-9.3,8.3-18.7,16.6-28,24.9c-0.3-0.4-0.7-0.7-1-1.1
			c8.5-9.4,17-18.9,25.5-28.3c-11.9,9.5-23.4,19.4-34.7,29.5c-1.1,0.9-2.1,2.7-2,4c0.9,11.6-8.4,27.1-19.1,31.3
			C425.7,229.2,425.4,229.1,425,229.1z"/>
		<path d="M425,229.1c0.3,0,0.7,0.1,1,0c10.7-4.2,20-19.7,19.1-31.3c-0.1-1.3,0.9-3.1,2-4c11.3-10.1,22.8-20,34.7-29.5
			c-8.5,9.4-17,18.9-25.5,28.3c0.3,0.4,0.7,0.7,1,1.1c9.3-8.3,18.7-16.6,28-24.9c0.2,0.2,0.4,0.3,0.5,0.5
			c-8.3,9.4-16.7,18.7-25,28.1c0.3,0.3,0.6,0.7,0.9,1c9.5-8.5,19.1-17,28.6-25.5c0.2,0.1,0.3,0.3,0.5,0.4
			c-8.5,9.5-16.9,19.1-25.4,28.6c0.3,0.3,0.7,0.7,1,1c9.3-8.4,18.7-16.8,28-25.2c0.2,0.2,0.4,0.4,0.6,0.6
			c-9.2,10.5-18.3,21-27.5,31.4c-1,1.1-2.9,2.1-4.3,2.1c-15.5-0.3-24.1,10.3-33.6,20.9c5.9,5.6,11.7,11.3,17.6,16.8
			c13.6,12.5,27.6,24.6,41,37.3c2.9,2.8,5,7,6.2,10.9c1.6,5.1-0.6,7.4-5.6,5.8c-4.2-1.4-8.6-3.7-11.7-6.9
			c-16.3-17.1-32.2-34.6-48.3-51.9c-1.7-1.8-3.6-3.4-5.8-5.4c-9,10.1-17.8,19.8-26.4,29.7c-8.9,10.1-17.7,20.4-26.4,30.6
			c-4.4,5.1-9.8,7.1-16.7,5.9c-1.4-7.2,1.3-12.6,6.5-17.2c17.6-15.3,35.2-30.6,52.6-46.1c4.5-4,8.3-8.8,12.5-13.3
			C425.2,228.9,425,229.1,425,229.1z"/>
		<path d="M425.2,228.9c-2.5,1.7-5,3.5-7.9,5.5c-15.7-6.4-28.7-17.4-39.9-30.5c-6.8-7.9-12.4-16.8-18.1-25.6
			c-1.8-2.8-2.3-6.5-2.8-9.9c-0.2-1.5,1-3.6,2.2-4.6c0.8-0.6,3.3,0.2,4.3,1.2c20.4,20.5,40.6,41.2,60.9,61.9
			c0.6,0.6,0.8,1.4,1.3,2.1C425,229.1,425.2,228.9,425.2,228.9z"/>
	</g>
</g>
</svg>
